<svg width="13" height="12" viewBox="0 0 13 12" fill="none" xmlns="http://www.w3.org/2000/svg">
<path d="M0.801627 1.6008L0.00938248 10.0008L1.02158 10.134L1.81383 1.7328L0.801627 1.6008ZM1.52768 12H11.4725V10.8H1.52768V12ZM12.9908 10.0008L12.1985 1.6008L11.1863 1.7328L11.9786 10.134L12.9908 10.0008ZM10.6792 1.82745e-08H2.32094V1.2H10.6813V1.82745e-08H10.6792ZM12.1985 1.6008C12.1569 1.16058 11.9791 0.753887 11.6989 0.458542C11.4188 0.163197 11.0551 -6.30652e-05 10.6792 1.82745e-08L10.6802 1.2C10.8056 1.19999 10.9265 1.25447 11.0199 1.353C11.1133 1.45153 11.1726 1.58719 11.1863 1.734L12.1985 1.6008ZM11.4725 12C11.6873 11.9999 11.8996 11.9464 12.0957 11.843C12.2917 11.7396 12.4671 11.5886 12.6102 11.3999C12.7534 11.2113 12.8612 10.9892 12.9266 10.7481C12.992 10.507 13.0146 10.2524 12.9908 10.0008L11.9786 10.134C11.9866 10.2179 11.9795 10.3017 11.9577 10.3822C11.936 10.4627 11.9 10.5369 11.8522 10.5999C11.8045 10.6628 11.7459 10.7132 11.6805 10.7477C11.6151 10.7822 11.5442 10.8 11.4725 10.8V12ZM0.00938248 10.0008C-0.0143965 10.2525 0.0071471 10.5072 0.072606 10.7484C0.138065 10.9895 0.245966 11.2117 0.38926 11.4004C0.532554 11.5891 0.708017 11.74 0.904184 11.8433C1.10035 11.9466 1.31281 12 1.52768 12V10.8C1.45609 10.8 1.3853 10.7822 1.31994 10.7478C1.25458 10.7134 1.19611 10.6631 1.14835 10.6003C1.10059 10.5374 1.06461 10.4634 1.04277 10.3831C1.02093 10.3027 1.01371 10.2179 1.02158 10.134L0.00938248 10.002V10.0008ZM1.81383 1.7328C1.82785 1.5862 1.88721 1.45083 1.98057 1.35255C2.07393 1.25427 2.19576 1.19996 2.32094 1.2V1.82745e-08C1.94524 0.000232128 1.58177 0.163625 1.30186 0.458942C1.02196 0.754259 0.843205 1.16078 0.801627 1.6008L1.81383 1.7328Z" fill="black" fill-opacity="0.45"/>
<path d="M4 2V2.5H3V2H4ZM9 2.5V2H10V2.5H9ZM6.5 5C7.16304 5 7.79893 4.73661 8.26777 4.26777C8.73661 3.79893 9 3.16304 9 2.5H10C10 3.42826 9.63125 4.3185 8.97487 4.97487C8.3185 5.63125 7.42826 6 6.5 6V5ZM4 2.5C4 3.16304 4.26339 3.79893 4.73223 4.26777C5.20107 4.73661 5.83696 5 6.5 5V6C5.57174 6 4.6815 5.63125 4.02513 4.97487C3.36875 4.3185 3 3.42826 3 2.5H4Z" fill="black" fill-opacity="0.45"/>
</svg>
